<svg width="400" height="400" viewBox="0 0 400 400" fill="none" xmlns="http://www.w3.org/2000/svg">
<rect width="400" height="400" fill="#FF4725"/>
<path fill-rule="evenodd" clip-rule="evenodd" d="M14 92H110.403C146.29 92 177.596 111.73 194.193 140.997V92H335.645C364.008 92 387 115.135 387 143.673C387 163.212 376.222 180.217 360.322 189C376.222 197.783 387 214.788 387 234.327C387 262.865 364.008 286 335.645 286H194.193V237.003C177.596 266.27 146.29 286 110.403 286H14V92ZM26.6135 237.003V273.308H62.6952C47.6758 264.685 35.1837 252.116 26.6135 237.003ZM104.097 273.073C60.7666 269.829 26.6135 233.428 26.6135 189C26.6135 144.572 60.7666 108.171 104.097 104.927V273.073ZM116.71 104.927V273.073C160.04 269.829 194.193 233.428 194.193 189C194.193 144.572 160.04 108.171 116.71 104.927ZM62.6952 104.692C47.6758 113.315 35.1837 125.884 26.6135 140.997V104.692H62.6952ZM206.807 195.346V273.308H284.29V195.346H206.807ZM296.903 195.346V273.308H335.645C357.041 273.308 374.386 255.856 374.386 234.327C374.386 212.798 357.041 195.346 335.645 195.346H296.903ZM335.645 182.654C357.041 182.654 374.386 165.202 374.386 143.673C374.386 122.144 357.041 104.692 335.645 104.692H296.903V182.654H335.645ZM284.29 104.692H206.807V182.654H284.29V104.692Z" fill="black"/>
</svg>
